<svg xmlns="http://www.w3.org/2000/svg" width="100px" height="40px" viewBox="0 0 429.01 190.93"><defs><style>.cls-1{fill:#1a4755;}.cls-2{fill:#f86647;}</style></defs><title>colored-mason-logo</title><g id="Layer_2" data-name="Layer 2"><g id="Layer_1-2" data-name="Layer 1"><rect class="cls-1" x="70.6" width="70.18" height="190.93"/><rect class="cls-1" x="189.99" width="70.18" height="190.93"/><polygon class="cls-2" points="70.6 79.02 0 79.02 70.6 190.94 141.19 190.94 70.6 79.02"/><polygon class="cls-2" points="140.78 0 70.18 0 190.4 190.94 261 190.94 140.78 0"/><polygon class="cls-2" points="260.58 0 189.99 0 310.2 190.94 380.8 190.94 260.58 0"/><path class="cls-2" d="M422.49,22.29c-4.88-3.83-11.22-4.29-17.15-1.38L328.6,55.15l18.69,33.06-61.91.07,0,14.37,86.51-.09-20.47-36.2c17.45-4,53.63-12.2,65.7-15a15,15,0,0,0,11.47-11.55A17.73,17.73,0,0,0,422.49,22.29Z"/></g></g></svg>